<?xml version="1.0" encoding="utf-8"?>
<!-- Generator: Adobe Illustrator 16.0.0, SVG Export Plug-In . SVG Version: 6.00 Build 0)  -->
<!DOCTYPE svg PUBLIC "-//W3C//DTD SVG 1.1//EN" "http://www.w3.org/Graphics/SVG/1.1/DTD/svg11.dtd">
<svg version="1.1" id="Layer_1" xmlns="http://www.w3.org/2000/svg" xmlns:xlink="http://www.w3.org/1999/xlink" x="0px" y="0px"
	 width="270.575px" height="270.576px" viewBox="0 0 270.575 270.576" enable-background="new 0 0 270.575 270.576"
	 xml:space="preserve">
<g id="moon">
	<path fill="#E8E59B" d="M135.287,0c74.717,0,135.299,60.6,135.299,135.3c0,74.717-60.569,135.288-135.288,135.288
		C60.57,270.601,0,210,0,135.288C0,60.6,60.6,0,135.3,0H135.287z"/>
</g>
<g id="branch">
	<g>
		<g>
			<defs>
				<path id="SVGID_1_" d="M135.287,0c74.717,0,135.299,60.6,135.299,135.288c0,74.717-60.569,135.288-135.288,135.3
					C60.57,270.601,0,210,0,135.288C0,60.6,60.6,0,135.3,0H135.287z"/>
			</defs>
			<clipPath id="SVGID_2_">
				<use xlink:href="#SVGID_1_"  overflow="visible"/>
			</clipPath>
			<rect x="18" y="237.2" clip-path="url(#SVGID_2_)" fill="#3D1F13" width="237.2" height="16.9"/>
		</g>
	</g>
</g>
<g id="body">
	<path fill="#995233" d="M172.187,64.357c-4.935,2.03-37.939-11.22-37.939-11.22S96.096,65.6,94.8,65.21
		C72.4,58.8,58.6,42.8,58.6,42.821l-0.43,126.165c12.035,75.199,77.8,70.699,77.8,70.699c68.553-5.373,74.354-70.711,74.354-70.711
		V41.531C197.62,53.6,184.799,59.2,172.2,64.357H172.187z"/>
	<path fill="#995233" d="M111.703,126.834c-7.491,6.877-18.89,7.31-18.89,7.31h-5.626c0,0-3.842-0.42-7.636-2.03
		c-2.938-1.247-5.587-3.24-8.039-6.091c-5.753-6.693-7.063-18.403-6.43-23.96c0.568-4.99,3.76-9.706,9.244-11.776
		c7.617-2.877,30.309-2.449,38.6,1.218c5.305,2.4,8,8.2,8,11c0.075,6.295-2.726,18.295-9.226,24.329H111.703z"/>
	<path fill="#995233" d="M112.908,91.503c-8.273-3.667-30.965-4.095-38.582-1.218c-5.483,2.071-8.675,6.786-9.244,11.776
		c-0.633,5.6,0.7,17.3,6.4,23.96c2.452,2.9,5.1,4.8,8,6.1c3.793,1.6,7.6,2,7.6,2.03h5.626c0,0,11.398-0.432,18.89-7.31
		c6.535-6,9.298-18.036,9.243-24.366c0.08-2.775-2.641-8.575-7.941-10.972H112.908z"/>
</g>
<g id="feet">
	<g>
		<g>
			<path fill="#ECEA6C" d="M165.73,239.163c-2.763,0-4.45,0.381-6.981,0.381c-1.379,0-2.836-1.066-2.875-5.372h-2.687
				c-0.038,4.306-1.495,5.372-2.876,5.372c-2.416,0-4.335-0.381-6.98-0.381c-4.064,0-5.293,2.21-5.293,7.048v2.629h2.416v-1.752
				c0-3.506,0.768-4.306,3.068-4.306c2.109,0,4.3,0.199,6.6,0.189c2.685,0,3.873-0.914,4.334-3.619h0.153
				c0.46,2.699,1.601,3.6,4.3,3.619c2.454,0,4.373-0.189,6.598-0.189c2.303,0,3.101,0.8,3.101,4.306v1.752h2.417v-2.629
				c-0.001-4.812-1.225-7.011-5.324-7.048H165.73z M123.979,239.163c-2.762,0-4.449,0.381-6.981,0.4
				c-1.381,0-2.838-1.066-2.876-5.373h-2.685c-0.039,4.307-1.496,5.373-2.877,5.373c-2.416,0-4.334-0.381-6.98-0.381
				c-4.066,0-5.293,2.209-5.293,7.047v2.629h2.417v-1.752c0-3.506,0.767-4.306,3.068-4.306c2.11,0,4.3,0.2,6.6,0.2
				c2.686,0,3.875-0.914,4.334-3.62h0.153c0.46,2.7,1.6,3.601,4.3,3.62c2.455,0,4.373-0.189,6.597-0.189
				c2.301,0,3.1,0.799,3.1,4.306v1.752h2.417v-2.629c-0.001-4.841-1.273-7.04-5.273-7.077H123.979z"/>
		</g>
	</g>
</g>
<g id="wings">
	<path fill="#3D1F13" d="M210.32,125.083c0,0-46.741,43.439-34.638,101.8c0.001,0.017,45.117-7.383,34.617-101.8H210.32z"/>
	<path fill="#3D1F13" d="M58.34,125.082c-11.344,94.399,33.7,102.2,33.7,102.2C104.663,169,58.3,125.1,58.3,125.082H58.34z"/>
</g>
<g id="nose">
	<path fill="#EDEA6B" d="M133.833,102.254c0,0-0.118,0.332-0.325,0.9c-1.467,4.121-7.4,20.792-7.4,20.792l8.427,14.004l7.723-14.004
		"/>
</g>
<g id="glasses">
	<g>
		<g>
			<path fill="#3D1F13" d="M169.978,84.193c-15.003,0.724-28.208,7.535-36.171,7.716c-8.11,0.184-16.535-6.166-36.17-7.716
				c-23.954-1.891-44.208,2.842-44.208,2.842l0.804,9.34c0,0,4.1,0.9,5.2,5.686c1.617,6.6,1.1,18.3,6.8,25.2
				c6.732,8,13.5,9.801,20.5,10.152c6.79,0.4,22.083-0.514,30.544-10.152c3.211-3.659,5.794-8.63,7.636-13.402
				c2.1-5.442,3.443-11.315,5.626-12.995c0.797-0.614,1.923-0.424,3.215-0.406c1.773,0,3.3,0,4.4,1.2c2.733,2.9,3.9,9.5,6.4,15.432
				c1.643,3.9,4.3,7.8,7.2,10.965c7.521,8.299,24.5,9.7,30.5,9.299c6.695-0.405,14.222-2.773,18.889-8.934
				c2.271-2.997,3.833-6.719,4.822-10.559c1.43-5.546,1.826-11.327,2.813-15.432c1.31-5.451,4.822-5.685,4.822-5.685l1.205-9.747
				C214.988,87,194.7,83,170,84.193H169.978z"/>
			<path fill="#3D1F13" d="M111.703,126.834c-7.491,6.877-18.89,7.31-18.89,7.31h-5.626c0,0-3.842-0.42-7.636-2.03
				c-2.938-1.247-5.587-3.24-8.039-6.091c-5.753-6.693-7.063-18.403-6.43-23.96c0.568-4.99,3.76-9.706,9.244-11.776
				c7.617-2.877,30.309-2.449,38.6,1.218c5.305,2.4,8,8.2,8,10.965c0.075,6.33-2.726,18.33-9.226,24.364H111.703z"/>
			<path fill="#3D1F13" d="M196.903,126.022c-2.451,2.852-5.102,4.845-8.037,6.091c-3.794,1.61-7.637,2.03-7.637,2.03h-5.627
				c0,0-11.396-0.432-18.889-7.31c-6.534-6-9.299-18.036-9.243-24.366c0.024-2.79,2.733-8.613,8.036-10.965
				c8.275-3.667,30.967-4.095,38.584-1.218c5.482,2.1,8.699,6.8,9.199,11.776c0.678,5.54-0.59,17.24-6.39,23.962H196.903z"/>
			<path fill="#FFFFFF" d="M194.09,90.285c-7.616-2.877-30.307-2.449-38.582,1.218c-5.305,2.352-8.014,8.175-8.037,11
				c-0.057,6.3,2.699,18.4,9.199,24.366c7.492,6.9,18.9,7.3,18.9,7.31h5.627c0,0,3.844-0.42,7.637-2.03
				c2.938-1.247,5.586-3.24,8.037-6.091c5.754-6.693,7.063-18.403,6.432-23.96C202.766,97.1,199.6,92.4,194.1,90.285H194.09z"/>
			<path fill="#FFFFFF" d="M112.908,91.503c-8.273-3.667-30.965-4.095-38.582-1.218c-5.483,2.071-8.675,6.786-9.244,11.8
				c-0.633,5.6,0.7,17.3,6.4,23.96c2.452,2.9,5.1,4.8,8,6.091c3.793,1.6,7.6,2,7.6,2.03h5.626c0,0,11.398-0.432,18.89-7.31
				c6.535-6,9.298-18.036,9.243-24.366c0.08-2.79-2.641-8.59-7.941-10.987H112.908z"/>
		</g>
		<path fill="#3D1F13" d="M170.183,104.212c3.78,0,6.8,3.1,6.8,6.9c0,3.796-3.064,6.872-6.846,6.872
			c-3.779,0-6.844-3.076-6.844-6.872c0.047-3.812,3.106-6.912,6.906-6.9H170.183z"/>
		<ellipse fill="#3D1F13" cx="98.8" cy="111.3" rx="6.8" ry="6.9"/>
		<circle fill="#FFFFFF" cx="57.9" cy="89.7" r="1.5"/>
		<circle fill="#FFFFFF" cx="57.9" cy="94.4" r="1.5"/>
		<circle fill="#FFFFFF" cx="210.799" cy="89.7" r="1.5"/>
		<circle fill="#FFFFFF" cx="210.799" cy="94.4" r="1.5"/>
	</g>
</g>
<g id="beard">
	<g>
		<g>
			<path fill="#3D1F13" d="M83.552,140.658l0.336-0.919l-0.861-0.315l-0.224,0.613c-0.449,1.226-0.825,1.403-1.646,1.101
				c-0.752-0.275-1.494-0.623-2.328-0.928c-0.958-0.352-1.499-0.188-2.008,0.699l-0.055-0.021c0.182-1.005-0.125-1.479-1.083-1.83
				c-0.875-0.32-1.583-0.504-2.377-0.795c-0.82-0.3-0.992-0.68-0.543-1.904l0.224-0.612l-0.862-0.315l-0.336,0.9
				c-0.619,1.691-0.464,2.6,1,3.154c0.985,0.399,1.6,0.399,2.5,0.777c0.492,0.2,0.9,0.7,0.3,2.252l0.958,0.4
				c0.564-1.5,1.221-1.682,1.713-1.502c0.862,0.3,1.5,0.7,2.4,1.044c1.553,0.543,2.24-0.157,2.94-1.799H83.552z M87.645,151.033
				c1.45,0.5,2.17-0.082,2.789-1.772l0.336-0.919l-0.862-0.315l-0.224,0.613c-0.448,1.226-0.824,1.404-1.645,1.101
				c-0.752-0.276-1.494-0.623-2.329-0.929c-0.958-0.351-1.498-0.187-2.008,0.699l-0.055-0.02c0.182-1.006-0.125-1.48-1.083-1.831
				c-0.875-0.32-1.584-0.504-2.377-0.794c-0.821-0.301-0.991-0.682-0.543-1.905l0.224-0.612l-0.862-0.315l-0.336,0.899
				c-0.618,1.691-0.463,2.601,1,3.154c0.984,0.4,1.6,0.4,2.5,0.778c0.492,0.2,0.9,0.7,0.3,2.253l0.957,0.3
				c0.564-1.5,1.22-1.683,1.712-1.502c0.926,0.384,1.561,0.784,2.461,1.117H87.645z M89.548,144.7c0.984,0.4,1.6,0.4,2.5,0.777
				c0.492,0.2,0.9,0.7,0.3,2.252l0.958,0.352c0.564-1.5,1.22-1.684,1.712-1.502c0.862,0.3,1.5,0.699,2.4,1.044
				c1.45,0.5,2.171-0.081,2.789-1.771l0.336-0.92l-0.862-0.314l-0.224,0.6c-0.449,1.225-0.824,1.405-1.646,1.104
				c-0.751-0.275-1.494-0.622-2.328-0.927c-0.958-0.352-1.499-0.188-2.009,0.698l-0.055-0.021c0.182-1.004-0.125-1.479-1.083-1.83
				c-0.876-0.32-1.584-0.504-2.377-0.794c-0.82-0.302-0.992-0.681-0.543-1.905l0.224-0.611l-0.862-0.315l-0.336,0.919
				c-0.499,1.664-0.342,2.564,1.058,3.131L89.548,144.7z M196.709,136.353l-0.336-0.919l-0.861,0.3l0.225,0.612
				c0.448,1.2,0.301,1.605-0.544,1.905c-0.794,0.291-1.502,0.476-2.377,0.794c-0.958,0.352-1.265,0.825-1.082,1.8l-0.056,0.021
				c-0.51-0.886-1.051-1.05-2.008-0.699c-0.836,0.306-1.578,0.651-2.33,0.927c-0.819,0.301-1.194,0.121-1.643-1.104l-0.226-0.613
				l-0.862,0.314l0.338,0.92c0.617,1.699,1.299,2.3,2.799,1.771c0.945-0.345,1.582-0.729,2.441-1.044c0.493-0.18,1.1,0,1.7,1.502
				l0.958-0.352c-0.537-1.508-0.153-2.071,0.339-2.252c0.901-0.33,1.554-0.418,2.538-0.777c1.451-0.458,1.576-1.458,0.977-3.105
				H196.709z M189.493,144.036l-0.861,0.314l0.224,0.601c0.449,1.2,0.3,1.604-0.543,1.905c-0.793,0.289-1.501,0.474-2.377,0.793
				c-0.957,0.352-1.265,0.826-1.083,1.832h-0.055c-0.51-0.885-1.053-1.049-2.01-0.699c-0.834,0.305-1.574,0.652-2.326,0.928
				c-0.821,0.3-1.197,0.121-1.646-1.104l-0.225-0.613l-0.861,0.314l0.336,0.92c0.619,1.699,1.301,2.299,2.801,1.771
				c0.942-0.346,1.578-0.729,2.439-1.045c0.492-0.18,1.1,0,1.699,1.502l0.959-0.35c-0.537-1.51-0.153-2.073,0.339-2.254
				c0.903-0.33,1.554-0.416,2.538-0.777c1.449-0.531,1.604-1.463,0.986-3.154L189.493,144.036z M181.59,155.233l-0.782,0.479
				l0.341,0.6c0.68,1.101,0.6,1.521-0.161,1.976c-0.721,0.44-1.38,0.759-2.176,1.244c-0.87,0.532-1.079,1.057-0.703,2.008h-0.05
				c-0.674-0.769-1.237-0.824-2.107-0.293c-0.758,0.462-1.416,0.948-2.102,1.364c-0.745,0.455-1.148,0.354-1.828-0.76l-0.341-0.557
				l-0.782,0.479l0.51,0.834c0.938,1.5,1.801,2,3.1,1.192c0.857-0.524,1.406-1.024,2.189-1.502c0.447-0.272,1.127-0.222,2,1.138
				l0.87-0.531c-0.821-1.375-0.556-2.002-0.108-2.274c0.82-0.501,1.441-0.714,2.338-1.259c1.316-0.805,1.287-1.75,0.35-3.286
				L181.59,155.233z M93.15,164.216c1.318,0.801,2.1,0.301,3.082-1.191l0.509-0.834l-0.783-0.479l-0.34,0.558
				c-0.679,1.113-1.083,1.215-1.829,0.76c-0.684-0.418-1.344-0.902-2.102-1.365c-0.871-0.532-1.433-0.477-2.106,0.292l-0.049-0.03
				c0.375-0.951,0.166-1.476-0.704-2.007c-0.796-0.485-1.455-0.805-2.175-1.245c-0.747-0.455-0.84-0.861-0.161-1.975l0.339-0.557
				l-0.783-0.479l-0.51,0.835c-0.938,1.537-0.968,2.5,0.3,3.3c0.896,0.5,1.5,0.801,2.3,1.26c0.448,0.301,0.7,0.9-0.108,2.275
				l0.87,0.531c0.847-1.361,1.526-1.411,1.974-1.139c0.87,0.475,1.426,0.975,2.326,1.49H93.15z M170.963,147.591
				c0.943-0.345,1.578-0.729,2.44-1.044c0.492-0.18,1.101,0,1.7,1.502l0.958-0.351c-0.537-1.51-0.153-2.072,0.339-2.252
				c0.902-0.331,1.553-0.418,2.538-0.778c1.45-0.531,1.604-1.463,0.985-3.153l-0.336-0.92l-0.861,0.315l0.225,0.612
				c0.448,1.199,0.299,1.604-0.543,1.899c-0.795,0.291-1.502,0.474-2.377,0.794c-0.957,0.352-1.267,0.826-1.084,1.83l-0.055,0.021
				c-0.51-0.885-1.051-1.049-2.008-0.699c-0.836,0.305-1.577,0.652-2.329,0.927c-0.82,0.301-1.196,0.121-1.644-1.104l-0.226-0.611
				l-0.862,0.314l0.338,0.9c0.631,1.706,1.338,2.307,2.838,1.797H170.963z M96.873,153.295c-0.525-0.004-1.076-0.403-1.08-2.006
				l-1.02-0.007c-0.025,1.602-0.581,1.996-1.105,1.992c-0.918-0.008-1.646-0.153-2.65-0.16c-1.544-0.01-2.015,0.809-2.027,2.609
				l-0.007,1l0.917,0.006l0.004-0.652c0.009-1.305,0.302-1.602,1.176-1.596c0.801,0,1.6,0.101,2.5,0.101
				c1.019,0,1.473-0.331,1.655-1.336h0.058c0.168,1,0.6,1.399,1.6,1.356c0.933,0,1.661-0.06,2.506-0.055c0.874,0,1.2,0.301,1.2,1.61
				l-0.004,0.653l0.917,0.004l0.007-0.978c0.011-1.801-0.449-2.626-1.993-2.637c-1.051-0.001-1.727,0.099-2.627,0.094H96.873z
				 M165.543,155.724l-0.006,0.979l0.916,0.006l0.004-0.651c0.01-1.306,0.304-1.602,1.178-1.596c0.8,0,1.6,0.1,2.5,0.087
				c1.02,0,1.474-0.331,1.654-1.336h0.059c0.169,1,0.6,1.4,1.6,1.356c0.932,0,1.661-0.06,2.506-0.055
				c0.875,0,1.199,0.301,1.199,1.61l-0.003,0.7l0.916,0.005l0.007-0.978c0.012-1.802-0.447-2.627-1.992-2.638
				c-1.047-0.006-1.689,0.13-2.651,0.101c-0.524-0.004-1.075-0.404-1.079-2.006l-1.02-0.008c-0.025,1.603-0.58,1.996-1.104,1.992
				c-0.918-0.007-1.646-0.152-2.649-0.16c-1.551-0.033-1.977,0.766-2.076,2.59H165.543z M172.472,169.688l0.007-0.978
				c0.012-1.802-0.449-2.627-1.993-2.637c-1.049-0.007-1.69,0.131-2.651,0.124c-0.523-0.004-1.074-0.404-1.078-2.006l-1.021-0.008
				c-0.023,1.603-0.58,1.996-1.105,2c-0.918-0.007-1.645-0.152-2.648-0.16c-1.544-0.01-2.016,0.81-2.027,2.61l-0.006,0.978
				l0.918,0.007l0.004-0.652c0.008-1.305,0.303-1.6,1.176-1.594c0.802,0,1.601,0.101,2.5,0.088c1.021,0,1.475-0.332,1.656-1.337
				h0.057c0.169,1,0.601,1.4,1.601,1.357c0.933,0,1.66-0.06,2.507-0.056c0.873,0,1.199,0.3,1.199,1.61l-0.005,0.699L172.472,169.688
				z M154.883,167.034c0.888-0.232,1.629-0.279,2.602-0.532c1.493-0.39,1.736-1.303,1.282-3.045l-0.247-0.947l-0.889,0.232
				l0.166,0.63c0.328,1.3,0.1,1.624-0.725,1.846c-0.775,0.201-1.582,0.338-2.441,0.6c-0.986,0.258-1.338,0.701-1.252,1.72
				l-0.057,0.015c-0.425-0.93-0.947-1.146-1.934-0.888c-0.901,0.233-1.59,0.487-2.405,0.7c-0.846,0.22-1.204,0.006-1.532-1.256
				l-0.164-0.631l-0.889,0.231l0.246,0.947c0.455,1.7,1.1,2.399,2.6,2c1.017-0.265,1.601-0.564,2.529-0.808
				c0.508-0.132,1.1,0.101,1.6,1.659l0.987-0.258c-0.422-1.55,0.039-2.05,0.539-2.216H154.883z M116.016,169.502
				c0.418-1.547,1.054-1.792,1.562-1.659c0.93,0.2,1.5,0.5,2.5,0.807c1.494,0.4,2.152-0.287,2.606-2.029l0.247-0.947l-0.888-0.232
				l-0.165,0.601c-0.33,1.261-0.687,1.476-1.532,1.255c-0.818-0.213-1.504-0.466-2.406-0.701c-0.986-0.258-1.51-0.042-1.933,0.889
				l-0.057-0.016c0.085-1.018-0.266-1.461-1.252-1.719c-0.86-0.225-1.667-0.361-2.442-0.562c-0.846-0.223-1.053-0.584-0.723-1.847
				l0.165-0.63l-0.888-0.232l-0.248,0.947c-0.454,1.742-0.21,2.7,1.3,3.045c0.972,0.301,1.7,0.301,2.6,0.5
				c0.508,0.101,0.9,0.7,0.6,2.209L116.016,169.502z M115.54,176.429l-0.067,0.649l0.913,0.095l0.1-0.973
				c0.185-1.792-0.195-2.657-1.73-2.815c-1-0.103-1.739-0.036-2.652-0.131c-0.522-0.053-1.031-0.505-0.882-2.101l-1.014-0.104
				c-0.178,1.591-0.77,1.929-1.291,1.876c-0.957-0.099-1.579-0.305-2.623-0.412c-1.536-0.158-2.084,0.611-2.268,2.402l-0.1,1
				l0.912,0.094l0.067-0.648c0.134-1.297,0.454-1.563,1.324-1.475c0.84,0.1,1.6,0.2,2.5,0.301c1.014,0.1,1.498-0.188,1.775-1.172
				l0.058,0.008c0.071,1,0.5,1.399,1.5,1.508c0.884,0.1,1.7,0.1,2.5,0.199c0.852,0.07,1.138,0.371,0.938,1.699H115.54z
				 M120.49,173.201c0.844-0.046,1.575-0.013,2.506-0.063c1.018-0.055,1.45-0.418,1.571-1.433l0.058-0.003
				c0.229,1,0.7,1.3,1.7,1.258c0.888-0.048,1.698-0.163,2.499-0.205c0.873-0.047,1.2,0.2,1.2,1.538l0.034,0.651l0.917-0.051
				l-0.052-0.976c-0.096-1.798-0.605-2.595-2.146-2.512c-1.004,0.053-1.724,0.233-2.64,0.282c-0.524,0.029-1.098-0.338-1.198-1.938
				l-1.018,0.055c0.071,1.602-0.46,2.026-0.984,2.1c-0.959,0.051-1.607-0.057-2.655,0c-1.542,0.082-1.963,0.927-1.867,2.726
				l0.052,0.978l0.917-0.049l-0.035-0.651c-0.006-1.308,0.251-1.708,1.151-1.707H120.49z M147.333,175.944l0.916,0.05l0.053-0.978
				c0.096-1.799-0.326-2.644-1.868-2.727c-1.048-0.057-1.695,0.051-2.654,0c-0.524-0.028-1.056-0.454-0.983-2.055l-1.02-0.055
				c-0.1,1.6-0.673,1.967-1.195,1.9c-0.918-0.049-1.638-0.229-2.642-0.283c-1.541-0.082-2.051,0.714-2.147,2.514l-0.051,0.977
				l0.917,0.048l0.034-0.649c0.069-1.303,0.376-1.584,1.249-1.539c0.801,0,1.6,0.201,2.5,0.205c1.02,0.101,1.486-0.261,1.715-1.256
				h0.059c0.123,1,0.601,1.399,1.601,1.432c0.931,0.1,1.7,0,2.5,0.062c0.874,0,1.101,0.4,1.101,1.661L147.333,175.944z
				 M139.782,181.312l0.008-0.978c0.016-1.801-0.444-2.627-1.988-2.64c-1.049-0.01-1.689,0.128-2.651,0.1
				c-0.524-0.004-1.074-0.406-1.076-2.008l-1.019-0.01c-0.028,1.604-0.584,1.994-1.109,1.992c-0.918-0.009-1.645-0.155-2.65-0.164
				c-1.543-0.013-2.016,0.806-2.031,2.605l-0.007,0.979l0.917,0.006l0.005-0.65c0.011-1.305,0.305-1.602,1.179-1.594
				c0.802,0,1.6,0.1,2.5,0.092c1.02,0,1.474-0.328,1.657-1.333l0.058,0.001c0.167,1,0.6,1.4,1.6,1.4
				c0.932,0,1.661-0.059,2.506-0.051c0.874,0,1.199,0.299,1.199,1.611l-0.006,0.652L139.782,181.312z M122.539,181.3l0.069,0.514
				l0.738-0.1l-0.104-0.771c-0.19-1.422-0.652-2.021-1.895-1.854c-0.844,0.113-1.344,0.294-2.118,0.4
				c-0.421,0.057-0.909-0.197-1.09-1.461l-0.82,0.109c0.157,1.268-0.246,1.641-0.668,1.697c-0.738,0.098-1.339,0.064-2.147,0.2
				c-1.242,0.167-1.531,0.866-1.34,2.288l0.104,0.771l0.738-0.099l-0.068-0.515c-0.138-1.03,0.064-1.297,0.768-1.391
				c0.645-0.086,1.308-0.119,2.022-0.216c0.821-0.108,1.147-0.427,1.182-1.241l0.047-0.006c0.247,0.8,0.6,1,1.5,0.9
				c0.75-0.102,1.328-0.235,2.008-0.328c0.67-0.1,0.935,0.1,1.035,1.087L122.539,181.3z M152.273,179.601
				c-0.808-0.107-1.409-0.076-2.146-0.175c-0.422-0.057-0.826-0.431-0.668-1.696l-0.82-0.11c-0.182,1.264-0.668,1.519-1.09,1.5
				c-0.774-0.103-1.274-0.285-2.118-0.397c-1.242-0.166-1.704,0.433-1.896,1.854l-0.104,0.771l0.738,0.101l0.068-0.515
				c0.139-1.031,0.404-1.233,1.106-1.14c0.68,0.101,1.3,0.2,2,0.327c0.819,0.1,1.22-0.11,1.467-0.887h0.048
				c0.033,0.801,0.4,1.101,1.2,1.242c0.715,0.1,1.399,0.1,2,0.215c0.703,0.1,0.899,0.399,0.8,1.391l-0.068,0.5l0.736,0.1
				l0.104-0.772c0.173-1.509-0.131-2.208-1.332-2.345L152.273,179.601z M145.394,184.3c-0.81-0.109-1.41-0.076-2.147-0.175
				c-0.422-0.056-0.826-0.431-0.668-1.696l-0.82-0.109c-0.18,1.263-0.668,1.517-1.09,1.5c-0.772-0.104-1.273-0.285-2.119-0.398
				c-1.239-0.167-1.703,0.432-1.894,1.854l-0.103,0.772l0.736,0.099l0.07-0.515c0.139-1.028,0.403-1.233,1.105-1.138
				c0.682,0.1,1.301,0.199,2,0.326c0.82,0.1,1.22-0.109,1.467-0.885h0.047c0.035,0.799,0.4,1.1,1.2,1.24
				c0.715,0.1,1.399,0.1,2,0.215c0.702,0.101,0.899,0.4,0.8,1.392l-0.068,0.5l0.737,0.099l0.104-0.771
				c0.17-1.408-0.152-2.108-1.353-2.312L145.394,184.3z M137.017,187.3c-0.71,0.01-1.224,0.114-1.873,0.124
				c-0.371,0.003-0.766-0.267-0.791-1.377l-0.721,0.009c0.004,1.111-0.383,1.393-0.754,1.4c-0.68,0.01-1.135-0.083-1.876-0.074
				c-1.091,0.016-1.413,0.59-1.396,1.84l0.009,0.678l0.649-0.008l-0.006-0.453c-0.012-0.904,0.192-1.113,0.81-1.121
				c0.597-0.008,1.1,0,1.8,0.024c0.72-0.009,1.036-0.249,1.151-0.948h0.041c0.133,0.699,0.5,0.899,1.2,0.918
				c0.628-0.008,1.204-0.063,1.772-0.07c0.616-0.01,0.799,0.199,0.799,1.101l0.006,0.5l0.648-0.008l-0.009-0.679
				c-0.031-1.256-0.376-1.855-1.476-1.836L137.017,187.3z M130.28,185.587l0.069,0.516l0.738-0.1l-0.104-0.771
				c-0.19-1.422-0.652-2.021-1.894-1.854c-0.845,0.113-1.345,0.294-2.118,0.397c-0.421,0.058-0.909-0.196-1.09-1.459l-0.821,0.109
				c0.158,1.266-0.245,1.641-0.667,1.696c-0.738,0.099-1.339,0.065-2.147,0.175c-1.242,0.167-1.53,0.865-1.339,2.301l0.104,0.771
				l0.738-0.1l-0.068-0.515c-0.139-1.03,0.064-1.296,0.768-1.392c0.645-0.086,1.309-0.117,2.023-0.215
				c0.82-0.109,1.147-0.426,1.181-1.24l0.047-0.006c0.247,0.8,0.6,1,1.5,0.885c0.75-0.1,1.328-0.235,2.008-0.326
				c0.668-0.061,0.892,0.141,1.092,1.127H130.28z M166.202,176.435l-0.738,0.096l0.066,0.5c0.135,1.031-0.07,1.297-0.773,1.387
				c-0.68,0.088-1.273,0.107-2.023,0.205c-0.82,0.105-1.15,0.421-1.188,1.234h-0.047c-0.244-0.778-0.644-1-1.463-0.895
				c-0.716,0.094-1.365,0.232-2.011,0.316c-0.703,0.091-0.969-0.114-1.103-1.145l-0.066-0.516l-0.738,0.096l0.1,0.771
				c0.186,1.4,0.601,2,1.9,1.863c0.81-0.104,1.381-0.291,2.119-0.388c0.424-0.053,0.9,0.2,1.1,1.467l0.822-0.106
				c-0.152-1.268,0.252-1.639,0.674-1.692c0.773-0.101,1.305-0.054,2.148-0.164c1.243-0.159,1.534-0.856,1.35-2.28L166.202,176.435z
				 M108.135,178.155c-0.133,1.029-0.399,1.234-1.102,1.1c-0.645-0.083-1.294-0.224-2.01-0.316
				c-0.821-0.105-1.219,0.115-1.462,0.894l-0.047-0.007c-0.038-0.813-0.367-1.129-1.187-1.234c-0.751-0.098-1.345-0.117-2.024-0.205
				c-0.704-0.09-0.908-0.355-0.774-1.387l0.067-0.514l-0.739-0.096l-0.1,0.799c-0.184,1.4,0.1,2.101,1.4,2.281
				c0.844,0.1,1.4,0.1,2.1,0.164c0.422,0.1,0.8,0.4,0.7,1.693l0.821,0.1c0.175-1.265,0.661-1.521,1.083-1.467
				c0.738,0.1,1.3,0.3,2.1,0.389c1.242,0.199,1.702-0.441,1.885-1.863l0.1-0.772l-0.739-0.096L108.135,178.155z M156.334,173.005
				c0.217,1,0.701,1.301,1.701,1.278c0.932-0.039,1.655-0.14,2.5-0.177c0.873-0.037,1.2,0.201,1.2,1.553l0.026,0.65l0.918-0.037
				l-0.042-0.979c-0.075-1.799-0.574-2.602-2.117-2.537c-1.048,0.044-1.683,0.212-2.644,0.252c-0.523,0.021-1.094-0.351-1.174-1.951
				l-1.02,0.041c0.052,1.602-0.484,2.021-1.008,2c-0.918,0.039-1.651-0.072-2.654-0.031c-1.543,0.065-1.975,0.906-1.898,2.705
				l0.041,0.979l0.916-0.039l-0.026-0.65c-0.054-1.304,0.225-1.613,1.098-1.649c0.8-0.033,1.601,0,2.507-0.034
				c1.018-0.042,1.454-0.4,1.588-1.415L156.334,173.005z M175.993,167.013l-0.785,0.475l0.336,0.56
				c0.674,1.101,0.6,1.522-0.172,1.974c-0.687,0.414-1.422,0.772-2.183,1.201c-0.874,0.525-1.086,1.051-0.716,2.002l-0.051,0.03
				c-0.668-0.772-1.23-0.831-2.104-0.306c-0.799,0.48-1.386,0.917-2.109,1.4c-0.75,0.45-1.151,0.346-1.824-0.771l-0.336-0.559
				l-0.786,0.474l0.504,0.839c0.929,1.5,1.8,2,3.101,1.2c0.897-0.541,1.373-0.993,2.197-1.489c0.449-0.271,1.127-0.216,2,1.148
				l0.874-0.525c-0.813-1.379-0.545-2.005-0.095-2.275c0.785-0.475,1.482-0.729,2.344-1.246c1.322-0.797,1.298-1.742,0.369-3.285
				L175.993,167.013z M102.302,173.453l0.504-0.838l-0.786-0.474l-0.337,0.559c-0.672,1.117-1.076,1.223-1.824,0.771
				c-0.724-0.437-1.311-0.873-2.109-1.354c-0.874-0.525-1.436-0.467-2.105,0.305l-0.05-0.029c0.369-0.953,0.158-1.478-0.715-2.004
				c-0.761-0.457-1.497-0.818-2.183-1.23c-0.749-0.451-0.845-0.857-0.172-1.975l0.336-0.559l-0.786-0.475l-0.505,0.839
				c-0.929,1.543-0.954,2.5,0.4,3.3c0.861,0.5,1.6,0.8,2.3,1.247c0.449,0.3,0.7,0.896-0.095,2.276l0.874,0.525
				c0.839-1.365,1.518-1.42,1.967-1.148c0.823,0.5,1.3,0.899,2.2,1.49c1.334,0.819,2.184,0.319,3.084-1.228H102.302z
				 M125.864,161.06l-0.979-0.285c-0.46,1.537-1.102,1.764-1.605,1.617c-0.923-0.267-1.5-0.582-2.507-0.873
				c-1.483-0.43-2.16,0.23-2.661,1.959l-0.271,0.9l0.881,0.255l0.182-0.626c0.362-1.252,0.725-1.458,1.564-1.215
				c0.812,0.2,1.5,0.5,2.4,0.8c0.979,0.3,1.5,0.101,1.955-0.837l0.056,0.016c-0.112,1,0.2,1.5,1.2,1.752
				c0.854,0.199,1.7,0.399,2.4,0.6c0.839,0.2,1,0.6,0.7,1.863l-0.182,0.626l0.881,0.255l0.272-0.94
				c0.5-1.729,0.281-2.649-1.201-3.077c-0.966-0.279-1.704-0.347-2.586-0.602c-0.508-0.146-0.963-0.646-0.463-2.188H125.864z
				 M142.571,163.7c-0.882,0.255-1.621,0.32-2.586,0.601c-1.482,0.429-1.701,1.349-1.201,3.078l0.271,0.94l0.882-0.256l-0.181-0.625
				c-0.362-1.254-0.166-1.621,0.674-1.862c0.77-0.224,1.572-0.384,2.426-0.629c0.979-0.284,1.318-0.736,1.207-1.753l0.057-0.016
				c0.447,0.9,1,1.1,2,0.836c0.896-0.259,1.574-0.529,2.385-0.765c0.841-0.243,1.203-0.038,1.601,1.215l0.183,0.601l0.881-0.254
				l-0.271-0.941c-0.501-1.729-1.178-2.389-2.66-1.96c-1.007,0.292-1.583,0.606-2.507,0.899c-0.504,0.146-1.146-0.082-1.605-1.617
				l-0.979,0.285c0.35,1.522-0.047,2.123-0.547,2.235L142.571,163.7z M139.606,158.3c-0.011,1.305-0.307,1.6-1.18,1.592
				c-0.801-0.007-1.616-0.084-2.506-0.093c-1.019-0.009-1.472,0.327-1.656,1.332h-0.058c-0.166-1.008-0.615-1.353-1.634-1.36
				c-0.932-0.008-1.661,0.057-2.506,0.049c-0.874-0.008-1.162-0.31-1.151-1.612l0.006-0.653l-0.918-0.008l-0.008,0.979
				c-0.016,1.801,0.4,2.601,2,2.642c1.048,0,1.69-0.127,2.651-0.119c0.525,0,1.1,0.4,1.1,2.009l1.02,0.01
				c0.028-1.604,0.585-1.996,1.109-1.99c0.918,0,1.601,0.199,2.601,0.199c1.543,0,2.017-0.805,2.032-2.604l0.008-0.978l-0.917-0.008
				l0.007,0.623V158.3z M153.931,150.993l-0.007,0.979h0.918l0.005-0.654c0.008-1.303,0.302-1.6,1.175-1.594
				c0.803,0,1.6,0.101,2.5,0.088c1.021,0,1.475-0.33,1.654-1.336h0.06c0.168,1,0.601,1.4,1.601,1.357
				c0.932,0,1.66-0.059,2.506-0.055c0.873,0,1.199,0.301,1.199,1.611l-0.004,0.699l0.918,0.006l0.006-0.978
				c0.013-1.802-0.447-2.626-1.992-2.638c-1.049-0.006-1.69,0.131-2.651,0.101c-0.524-0.003-1.075-0.404-1.079-2.007l-1.02-0.006
				c-0.025,1.602-0.581,1.996-1.106,1.992c-0.917-0.007-1.644-0.153-2.647-0.16c-1.551,0-2.065,0.801-2.065,2.594H153.931z
				 M159.379,157.946c0.168,1,0.601,1.4,1.601,1.4c0.931,0,1.66-0.061,2.505-0.056c0.873,0,1.2,0.3,1.2,1.61l-0.004,0.651
				l0.918,0.007l0.006-0.979c0.013-1.8-0.448-2.625-1.992-2.637c-1.05-0.006-1.69,0.131-2.651,0.125
				c-0.524-0.004-1.075-0.404-1.078-2.006l-1.021-0.008c-0.025,1.604-0.58,1.996-1.105,1.992c-0.916-0.005-1.645-0.152-2.648-0.158
				c-1.544-0.011-2.016,0.809-2.027,2.608l-0.006,1l0.918,0.006l0.004-0.651c0.008-1.306,0.301-1.602,1.176-1.596
				c0.801,0,1.6,0.1,2.5,0.1c1.02,0,1.473-0.33,1.654-1.336L159.379,157.946z M101.949,150.896c0.009-1.305,0.302-1.601,1.176-1.595
				c0.801,0,1.6,0.101,2.5,0.089c1.019,0,1.473-0.332,1.655-1.337h0.058c0.168,1,0.6,1.4,1.6,1.4c0.932,0,1.661-0.06,2.505-0.054
				c0.875,0,1.2,0.3,1.2,1.609l-0.004,0.652l0.917,0.006l0.006-0.979c0.012-1.801-0.449-2.625-1.993-2.637
				c-1.049-0.006-1.69,0.131-2.651,0.125c-0.525-0.003-1.076-0.404-1.079-2.006l-1.02-0.007c-0.025,1.603-0.581,1.995-1.105,1.992
				c-0.918-0.007-1.645-0.153-2.65-0.16c-1.543-0.011-2.016,0.81-2.027,2.61l-0.006,1l0.917,0.004L101.949,150.896z
				 M108.574,157.515l0.058,0.002c0.168,1,0.6,1.399,1.6,1.399c0.932,0,1.661-0.06,2.506-0.056c0.874,0,1.2,0.301,1.2,1.611
				l-0.004,0.651l0.918,0.006l0.006-0.978c0.012-1.801-0.449-2.627-1.993-2.637c-1.049-0.007-1.69,0.131-2.652,0.125
				c-0.524-0.004-1.075-0.404-1.079-2.007l-1.02-0.006c-0.025,1.603-0.582,1.996-1.105,1.992c-0.918-0.006-1.646-0.153-2.65-0.159
				c-1.544-0.01-2.015,0.809-2.027,2.609l-0.006,1l0.917,0.006l0.004-0.652c0.009-1.304,0.302-1.6,1.176-1.594
				c0.801,0,1.6,0.1,2.5,0.1c1.016-0.029,1.477-0.429,1.677-1.414H108.574z M107.962,168.829l0.006-0.979
				c0.012-1.801-0.449-2.627-1.993-2.638c-1.049-0.006-1.69,0.131-2.652,0.125c-0.524-0.003-1.075-0.403-1.079-2.005l-1.02-0.007
				c-0.025,1.603-0.582,1.996-1.105,2c-0.917-0.007-1.645-0.152-2.65-0.159c-1.544-0.011-2.016,0.809-2.027,2.609l-0.006,0.978
				l0.917,0.007l0.004-0.652c0.008-1.305,0.302-1.601,1.176-1.596c0.801,0,1.6,0.1,2.5,0.088c1.02,0,1.474-0.33,1.655-1.336h0.058
				c0.168,1,0.6,1.399,1.6,1.357c0.932,0,1.661-0.061,2.506-0.055c0.874,0,1.2,0.301,1.2,1.61l-0.005,0.7L107.962,168.829z
				 M122.26,152.672c-0.459-0.003-0.942-0.354-0.946-1.763l-0.894-0.006c-0.022,1.408-0.51,1.754-0.97,1.8
				c-0.805-0.005-1.442-0.134-2.323-0.14c-1.354-0.01-1.769,0.711-1.778,2.293l-0.006,0.859l0.805,0.006l0.004-0.574
				c0.008-1.146,0.265-1.406,1.031-1.4c0.702,0,1.4,0.1,2.2,0.077c0.894,0,1.292-0.29,1.452-1.175h0.05
				c0.147,0.9,0.5,1.201,1.4,1.193c0.817,0,1.456-0.053,2.197-0.048c0.767,0,1,0.3,1,1.415l-0.003,0.6l0.805,0.006l0.005-0.859
				c0.01-1.583-0.394-2.309-1.748-2.316c-0.875-0.039-1.441,0.061-2.241,0.032H122.26z M139.528,155.7l0.006-0.86
				c0.01-1.583-0.394-2.308-1.748-2.317c-0.918-0.006-1.481,0.115-2.325,0.109c-0.46-0.003-0.942-0.355-0.947-1.763l-0.894-0.007
				c-0.022,1.408-0.51,1.755-0.969,1.75c-0.805-0.004-1.443-0.133-2.325-0.139c-1.354-0.01-1.767,0.711-1.777,2.299l-0.006,0.86
				l0.805,0.005l0.004-0.572c0.007-1.147,0.264-1.407,1.031-1.401c0.703,0,1.4,0.101,2.2,0.101c0.894,0,1.292-0.291,1.451-1.175
				h0.051c0.148,0.9,0.5,1.2,1.4,1.193c0.818,0,1.457-0.054,2.198-0.048c0.767,0,1,0.3,1,1.414l-0.004,0.574l0.849,0.017V155.7z
				 M142.553,155.099c0.007-1.146,0.265-1.406,1.029-1.4c0.703,0,1.4,0.1,2.201,0.076c0.895,0,1.293-0.289,1.45-1.174h0.052
				c0.146,0.9,0.5,1.2,1.399,1.2c0.815,0,1.456-0.053,2.196-0.048c0.767,0,1,0.3,1,1.415l-0.004,0.573l0.805,0.006l0.006-0.86
				c0.012-1.583-0.395-2.308-1.748-2.317c-0.919-0.006-1.482,0.115-2.325,0.109c-0.46-0.003-0.942-0.354-0.944-1.763l-0.896-0.006
				c-0.021,1.407-0.509,1.754-0.969,1.75c-0.805-0.005-1.442-0.134-2.323-0.14c-1.354-0.01-1.769,0.711-1.778,2.293l-0.007,0.899
				l0.806,0.005L142.553,155.099z M128.612,146.164c0.009-1.306,0.302-1.601,1.176-1.595c0.801,0,1.6,0.1,2.5,0.1
				c1.02,0,1.473-0.331,1.655-1.336h0.058c0.168,1,0.6,1.4,1.6,1.357c0.933,0,1.661-0.06,2.505-0.055c0.874,0,1.2,0.301,1.2,1.61
				l-0.005,0.651l0.918,0.008l0.006-0.979c0.012-1.8-0.447-2.626-1.992-2.636c-1.048-0.007-1.691,0.13-2.652,0.124
				c-0.524-0.003-1.075-0.404-1.079-2.006l-1.02-0.007c-0.025,1.602-0.581,1.996-1.105,2c-0.918-0.006-1.645-0.153-2.65-0.16
				c-1.543-0.01-2.015,0.81-2.027,2.609l-0.006,0.979l0.917,0.006L128.612,146.164z M113.99,146.164
				c0.009-1.306,0.302-1.601,1.177-1.595c0.8,0,1.6,0.1,2.5,0.087c1.019,0,1.474-0.331,1.655-1.337h0.058c0.168,1,0.6,1.4,1.6,1.357
				c0.932,0,1.661-0.059,2.505-0.054c0.874,0,1.2,0.3,1.2,1.601l-0.004,0.651l0.917,0.007l0.006-0.979
				c0.012-1.801-0.448-2.627-1.992-2.637c-1.049-0.007-1.691,0.131-2.652,0.101c-0.524-0.003-1.075-0.404-1.08-2.007l-1.019-0.006
				c-0.025,1.602-0.582,1.996-1.106,1.992c-0.917-0.007-1.645-0.154-2.649-0.16c-1.544-0.011-2.016,0.81-2.027,2.609l-0.007,0.979
				l0.918,0.007L113.99,146.164z M144.095,146.2c0.009-1.305,0.302-1.602,1.176-1.596c0.801,0,1.601,0.101,2.5,0.088
				c1.021,0,1.474-0.332,1.655-1.336h0.058c0.169,1,0.601,1.399,1.601,1.356c0.932,0,1.66-0.06,2.504-0.054
				c0.875,0,1.199,0.3,1.199,1.609l-0.004,0.7l0.918,0.007l0.006-0.979c0.013-1.8-0.449-2.626-1.994-2.637
				c-1.047-0.006-1.689,0.131-2.65,0.101c-0.523-0.003-1.075-0.403-1.078-2.006l-1.021-0.007c-0.023,1.602-0.58,1.996-1.104,1.992
				c-0.918-0.006-1.646-0.153-2.647-0.16c-1.545-0.01-2.019,0.81-2.029,2.609l-0.006,0.979l0.918,0.006l0.001-0.711V146.2z"/>
		</g>
	</g>
</g>
</svg>
