<svg xmlns="http://www.w3.org/2000/svg" xmlns:xlink="http://www.w3.org/1999/xlink" version="1.1" x="0px" y="0px" width="270.575px" height="270.576px" viewBox="0 0 270.575 270.576" enable-background="new 0 0 270.575 270.576" xml:space="preserve">
<g id="moon">
	<path fill-rule="evenodd" clip-rule="evenodd" fill="#E8E59B" d="M135.287 0c74.718 0 135.3 60.6 135.3 135.3 c0 74.717-60.57 135.288-135.288 135.288C60.57 270.6 0 210 0 135.288C0 60.6 60.6 0 135.3 0z"/>
</g>
<g id="branch">
	<g>
		<defs>
			<path id="SVGID_1_" d="M135.287 0c74.718 0 135.3 60.6 135.3 135.288c0 74.717-60.57 135.288-135.288 135.3 C60.57 270.6 0 210 0 135.288C0 60.6 60.6 0 135.3 0z"/>
		</defs>
		<clipPath id="SVGID_2_">
			<use xlink:href="#SVGID_1_" overflow="visible"/>
		</clipPath>
		
			<rect x="18" y="237.2" clip-path="url(#SVGID_2_)" fill-rule="evenodd" clip-rule="evenodd" fill="#3D1F13" width="237.2" height="16.9"/>
	</g>
</g>
<g id="body">
	<path fill-rule="evenodd" clip-rule="evenodd" fill="#995233" d="M172.187 64.357c-4.934 2.03-37.939-11.22-37.939-11.22 S96.096 65.6 94.8 65.21C72.4 58.8 58.6 42.8 58.6 42.821l-0.43 126.164c12.035 75.2 77.8 70.7 77.8 70.7 c68.553-5.373 74.355-70.712 74.355-70.712V41.531C197.62 53.6 184.8 59.2 172.2 64.357z"/>
	<path fill-rule="evenodd" clip-rule="evenodd" fill="#995233" d="M111.703 126.834c-7.491 6.877-18.89 7.31-18.89 7.31h-5.626 c0 0-3.842-0.42-7.636-2.03c-2.938-1.247-5.587-3.24-8.039-6.091c-5.753-6.693-7.063-18.403-6.43-23.96 c0.568-4.99 3.76-9.706 9.244-11.776c7.617-2.877 30.309-2.449 38.6 1.218c5.305 2.4 8 8.2 8 11 C121.001 108.8 118.2 120.8 111.7 126.834z"/>
	<path fill-rule="evenodd" clip-rule="evenodd" fill="#995233" d="M112.908 91.503c-8.273-3.667-30.965-4.095-38.582-1.218 c-5.483 2.071-8.675 6.786-9.244 11.776c-0.633 5.6 0.7 17.3 6.4 23.96c2.452 2.9 5.1 4.8 8 6.1 c3.793 1.6 7.6 2 7.6 2.03h5.626c0 0 11.398-0.432 18.89-7.31c6.535-6 9.298-18.036 9.243-24.366 C120.921 99.7 118.2 93.9 112.9 91.503z"/>
</g>
<g id="feet">
	<g>
		<g>
			<path fill="#ECEA6C" d="M165.73 239.163c-2.762 0-4.45 0.381-6.981 0.381c-1.38 0-2.837-1.066-2.876-5.372h-2.686 c-0.038 4.306-1.495 5.372-2.876 5.372c-2.416 0-4.335-0.381-6.98-0.381c-4.065 0-5.294 2.21-5.294 7.048v2.629h2.417v-1.752 c0-3.506 0.767-4.306 3.068-4.306c2.109 0 4.3 0.2 6.6 0.19c2.684 0 3.873-0.914 4.334-3.62h0.153 c0.46 2.7 1.6 3.6 4.3 3.62c2.454 0 4.373-0.19 6.598-0.19c2.302 0 3.1 0.8 3.1 4.306v1.752h2.417v-2.629 C171.023 241.4 169.8 239.2 165.7 239.163z M123.979 239.163c-2.762 0-4.449 0.381-6.981 0.4 c-1.381 0-2.838-1.066-2.876-5.372h-2.685c-0.039 4.306-1.496 5.372-2.877 5.372c-2.416 0-4.334-0.381-6.98-0.381 c-4.066 0-5.293 2.21-5.293 7.048v2.629h2.417v-1.752c0-3.506 0.767-4.306 3.068-4.306c2.11 0 4.3 0.2 6.6 0.2 c2.686 0 3.875-0.914 4.334-3.62h0.153c0.46 2.7 1.6 3.6 4.3 3.62c2.455 0 4.373-0.19 6.597-0.19 c2.301 0 3.1 0.8 3.1 4.306v1.752h2.417v-2.629C129.272 241.4 128 239.2 124 239.163z"/>
		</g>
	</g>
</g>
<g id="wings">
	<path fill-rule="evenodd" clip-rule="evenodd" fill="#3D1F13" d="M210.32 125.083c0 0-46.742 43.439-34.638 101.8 C175.683 226.9 220.8 219.5 210.3 125.083z"/>
	<path fill-rule="evenodd" clip-rule="evenodd" fill="#3D1F13" d="M58.34 125.082c-11.344 94.4 33.7 102.2 33.7 102.2 C104.663 169 58.3 125.1 58.3 125.082z"/>
</g>
<g id="nose">
	<path fill-rule="evenodd" clip-rule="evenodd" fill="#EDEA6B" d="M133.833 102.254c0 0-0.118 0.332-0.325 0.9 c-1.467 4.121-7.4 20.792-7.4 20.792l8.427 14.004l7.724-14.004"/>
</g>
<g id="glasses">
	<g>
		<g>
			<path fill="#3D1F13" d="M169.978 84.193c-15.003 0.724-28.208 7.535-36.171 7.716c-8.11 0.184-16.535-6.166-36.17-7.716 c-23.954-1.891-44.208 2.842-44.208 2.842l0.804 9.34c0 0 4.1 0.9 5.2 5.686c1.617 6.6 1.1 18.3 6.8 25.2 c6.732 8 13.5 9.8 20.5 10.152c6.79 0.4 22.083-0.513 30.544-10.152c3.211-3.659 5.794-8.63 7.636-13.402 c2.1-5.442 3.443-11.315 5.626-12.995c0.797-0.614 1.923-0.424 3.215-0.406c1.773 0 3.3 0 4.4 1.2 c2.733 2.9 3.9 9.5 6.4 15.432c1.643 3.9 4.3 7.8 7.2 10.965c7.521 8.3 24.5 9.7 30.5 9.3 c6.696-0.406 14.222-2.774 18.889-8.934c2.271-2.997 3.833-6.719 4.823-10.559c1.429-5.546 1.826-11.327 2.813-15.432 c1.31-5.451 4.822-5.685 4.822-5.685l1.205-9.747C214.988 87 194.7 83 170 84.193z"/>
			<path fill="#3D1F13" d="M111.703 126.834c-7.491 6.877-18.89 7.31-18.89 7.31h-5.626c0 0-3.842-0.42-7.636-2.03 c-2.938-1.247-5.587-3.24-8.039-6.091c-5.753-6.693-7.063-18.403-6.43-23.96c0.568-4.99 3.76-9.706 9.244-11.776 c7.617-2.877 30.309-2.449 38.6 1.218c5.305 2.4 8 8.2 8 10.965C121.001 108.8 118.2 120.8 111.7 126.834z "/>
			<path fill="#3D1F13" d="M196.903 126.022c-2.452 2.852-5.101 4.845-8.037 6.091c-3.794 1.61-7.637 2.03-7.637 2.03h-5.627 c0 0-11.397-0.432-18.889-7.31c-6.534-6-9.299-18.036-9.243-24.366c0.024-2.79 2.733-8.613 8.037-10.965 c8.275-3.667 30.966-4.095 38.583-1.218c5.483 2.1 8.7 6.8 9.2 11.776C203.967 107.6 202.7 119.3 196.9 126.022z "/>
			<path fill="#FFFFFF" d="M194.091 90.285c-7.617-2.877-30.308-2.449-38.583 1.218c-5.304 2.352-8.013 8.175-8.037 11 c-0.056 6.3 2.7 18.4 9.2 24.366c7.491 6.9 18.9 7.3 18.9 7.31h5.627c0 0 3.843-0.42 7.637-2.03 c2.937-1.247 5.585-3.24 8.037-6.091c5.753-6.693 7.063-18.403 6.431-23.96C202.766 97.1 199.6 92.4 194.1 90.285z"/>
			<path fill="#FFFFFF" d="M112.908 91.503c-8.273-3.667-30.965-4.095-38.582-1.218c-5.483 2.071-8.675 6.786-9.244 11.8 c-0.633 5.6 0.7 17.3 6.4 23.96c2.452 2.9 5.1 4.8 8 6.091c3.793 1.6 7.6 2 7.6 2.03h5.626 c0 0 11.398-0.432 18.89-7.31c6.535-6 9.298-18.036 9.243-24.366C120.921 99.7 118.2 93.9 112.9 91.503z"/>
		</g>
		<path fill-rule="evenodd" clip-rule="evenodd" fill="#3D1F13" d="M170.183 104.212c3.781 0 6.8 3.1 6.8 6.9 c0 3.796-3.064 6.872-6.846 6.872c-3.779 0-6.843-3.076-6.843-6.872C163.34 107.3 166.4 104.2 170.2 104.212z"/>
		<ellipse fill-rule="evenodd" clip-rule="evenodd" fill="#3D1F13" cx="98.8" cy="111.3" rx="6.8" ry="6.9"/>
		<circle fill="#FFFFFF" cx="57.9" cy="89.7" r="1.5"/>
		<circle fill="#FFFFFF" cx="57.9" cy="94.4" r="1.5"/>
		<circle fill="#FFFFFF" cx="210.8" cy="89.7" r="1.5"/>
		<circle fill="#FFFFFF" cx="210.8" cy="94.4" r="1.5"/>
	</g>
</g>
<g id="beard">
	<g>
		<g>
			<path fill="#3D1F13" d="M83.552 140.658l0.336-0.919l-0.861-0.315l-0.224 0.613c-0.449 1.225-0.825 1.404-1.646 1.1 c-0.752-0.275-1.494-0.622-2.328-0.927c-0.958-0.351-1.499-0.187-2.008 0.699l-0.055-0.021c0.182-1.005-0.125-1.48-1.083-1.831 c-0.875-0.32-1.583-0.504-2.377-0.794c-0.82-0.3-0.992-0.68-0.543-1.905l0.224-0.612l-0.862-0.315l-0.336 0.9 c-0.619 1.691-0.464 2.6 1 3.154c0.985 0.4 1.6 0.4 2.5 0.778c0.492 0.2 0.9 0.7 0.3 2.252l0.958 0.4 c0.564-1.5 1.221-1.682 1.713-1.502c0.862 0.3 1.5 0.7 2.4 1.044C82.213 143 82.9 142.3 83.6 140.658z M87.645 151.033c1.45 0.5 2.17-0.082 2.789-1.772l0.336-0.919l-0.862-0.315l-0.224 0.613c-0.448 1.225-0.824 1.404-1.645 1.1 c-0.752-0.276-1.494-0.623-2.329-0.928c-0.958-0.351-1.498-0.187-2.008 0.699l-0.055-0.02c0.182-1.005-0.125-1.48-1.083-1.831 c-0.875-0.32-1.584-0.504-2.377-0.794c-0.821-0.301-0.991-0.681-0.543-1.905l0.224-0.613l-0.862-0.315l-0.336 0.9 c-0.618 1.691-0.463 2.6 1 3.154c0.984 0.4 1.6 0.4 2.5 0.778c0.492 0.2 0.9 0.7 0.3 2.253l0.957 0.3 c0.564-1.5 1.22-1.682 1.712-1.502C86.065 150.3 86.7 150.7 87.6 151.033z M89.548 144.7 c0.984 0.4 1.6 0.4 2.5 0.778c0.492 0.2 0.9 0.7 0.3 2.252l0.958 0.351c0.564-1.5 1.22-1.683 1.712-1.502 c0.862 0.3 1.5 0.7 2.4 1.044c1.45 0.5 2.171-0.081 2.789-1.771l0.336-0.919l-0.862-0.315l-0.224 0.6 c-0.449 1.225-0.824 1.405-1.646 1.104c-0.751-0.275-1.494-0.622-2.328-0.927c-0.958-0.351-1.499-0.187-2.009 0.699l-0.055-0.021 c0.182-1.004-0.125-1.479-1.083-1.83c-0.876-0.32-1.584-0.504-2.377-0.794c-0.82-0.301-0.992-0.68-0.543-1.905l0.224-0.612 l-0.862-0.315l-0.336 0.919C87.943 143.2 88.1 144.1 89.5 144.667z M196.71 136.352l-0.336-0.919l-0.862 0.3 l0.225 0.612c0.448 1.2 0.3 1.605-0.544 1.905c-0.794 0.291-1.502 0.475-2.377 0.794c-0.958 0.351-1.265 0.825-1.082 1.8 l-0.056 0.021c-0.51-0.886-1.051-1.05-2.008-0.699c-0.835 0.306-1.577 0.652-2.329 0.927c-0.82 0.3-1.195 0.121-1.644-1.104 l-0.225-0.613l-0.862 0.315l0.337 0.919c0.618 1.7 1.3 2.3 2.8 1.771c0.945-0.345 1.581-0.729 2.441-1.044 c0.493-0.18 1.1 0 1.7 1.502l0.958-0.351c-0.537-1.509-0.153-2.072 0.339-2.252c0.902-0.331 1.554-0.418 2.538-0.778 C197.174 139 197.3 138 196.7 136.352z M189.492 144.036l-0.86 0.315l0.223 0.6 c0.449 1.2 0.3 1.604-0.543 1.905c-0.793 0.29-1.501 0.474-2.377 0.794c-0.957 0.351-1.265 0.825-1.083 1.831l-0.055 0 c-0.51-0.885-1.052-1.049-2.009-0.699c-0.834 0.305-1.575 0.652-2.327 0.928c-0.821 0.3-1.197 0.121-1.646-1.104l-0.225-0.613 l-0.861 0.315l0.336 0.919c0.619 1.7 1.3 2.3 2.8 1.772c0.943-0.346 1.579-0.729 2.44-1.045 c0.492-0.18 1.1 0 1.7 1.502l0.958-0.35c-0.537-1.51-0.153-2.073 0.339-2.253c0.903-0.33 1.554-0.417 2.538-0.778 c1.45-0.531 1.604-1.463 0.986-3.154L189.492 144.036z M181.591 155.234l-0.783 0.478l0.341 0.6 c0.679 1.1 0.6 1.52-0.161 1.975c-0.721 0.44-1.38 0.759-2.176 1.244c-0.87 0.532-1.079 1.057-0.703 2.008l-0.05 0 c-0.674-0.769-1.237-0.824-2.107-0.293c-0.758 0.462-1.417 0.948-2.102 1.365c-0.745 0.455-1.149 0.354-1.828-0.761l-0.341-0.556 l-0.782 0.478l0.51 0.834c0.938 1.5 1.8 2 3.1 1.193c0.857-0.524 1.406-1.024 2.189-1.502 c0.447-0.272 1.127-0.222 2 1.137l0.87-0.53c-0.822-1.375-0.556-2.003-0.108-2.275c0.82-0.501 1.441-0.714 2.337-1.259 c1.317-0.805 1.287-1.75 0.35-3.286L181.591 155.234z M93.15 164.216c1.318 0.8 2.1 0.3 3.082-1.192l0.509-0.834 l-0.783-0.479l-0.34 0.557c-0.679 1.114-1.083 1.216-1.829 0.76c-0.684-0.417-1.344-0.902-2.102-1.365 c-0.871-0.532-1.433-0.476-2.106 0.292l-0.049-0.03c0.375-0.951 0.166-1.476-0.704-2.007c-0.796-0.486-1.455-0.805-2.175-1.245 c-0.747-0.455-0.84-0.861-0.161-1.975l0.339-0.557l-0.783-0.478l-0.51 0.835c-0.938 1.537-0.968 2.5 0.3 3.3 c0.896 0.5 1.5 0.8 2.3 1.26c0.448 0.3 0.7 0.9-0.108 2.275l0.87 0.531c0.847-1.361 1.526-1.411 1.974-1.138 C91.744 163.2 92.3 163.7 93.2 164.216z M170.963 147.591c0.944-0.345 1.579-0.729 2.441-1.044 c0.492-0.18 1.1 0 1.7 1.502l0.958-0.351c-0.537-1.51-0.154-2.072 0.339-2.252c0.902-0.331 1.553-0.418 2.538-0.778 c1.45-0.531 1.604-1.463 0.986-3.154l-0.336-0.919l-0.862 0.315l0.224 0.612c0.449 1.2 0.3 1.604-0.543 1.9 c-0.794 0.291-1.501 0.474-2.376 0.794c-0.958 0.351-1.267 0.826-1.084 1.83l-0.055 0.021c-0.51-0.885-1.051-1.049-2.008-0.699 c-0.835 0.305-1.577 0.652-2.329 0.927c-0.82 0.301-1.196 0.121-1.644-1.104l-0.225-0.612l-0.862 0.315l0.337 0.9 C168.793 147.5 169.5 148.1 171 147.591z M96.873 153.295c-0.525-0.004-1.076-0.404-1.08-2.006l-1.02-0.007 c-0.025 1.602-0.581 1.996-1.105 1.992c-0.918-0.007-1.646-0.153-2.65-0.16c-1.544-0.01-2.015 0.809-2.027 2.609l-0.007 1 l0.917 0.006l0.004-0.652c0.009-1.305 0.302-1.601 1.176-1.595c0.801 0 1.6 0.1 2.5 0.1 c1.019 0 1.473-0.331 1.655-1.336l0.058 0c0.168 1 0.6 1.4 1.6 1.357c0.933 0 1.661-0.06 2.506-0.055 c0.874 0 1.2 0.3 1.2 1.61l-0.004 0.653l0.917 0.005l0.007-0.978c0.011-1.801-0.449-2.626-1.993-2.637 C98.476 153.2 97.8 153.3 96.9 153.295z M165.543 155.724l-0.006 0.979l0.917 0.006l0.004-0.652 c0.009-1.305 0.303-1.601 1.177-1.595c0.8 0 1.6 0.1 2.5 0.087c1.02 0 1.474-0.331 1.654-1.336l0.059 0 c0.169 1 0.6 1.4 1.6 1.357c0.932 0 1.661-0.06 2.505-0.055c0.875 0 1.2 0.3 1.2 1.61l-0.003 0.7 l0.916 0.005l0.007-0.978c0.012-1.801-0.448-2.626-1.993-2.637c-1.047-0.006-1.689 0.13-2.651 0.1 c-0.524-0.004-1.075-0.404-1.079-2.006l-1.019-0.007c-0.026 1.602-0.581 1.996-1.105 1.992c-0.918-0.007-1.646-0.153-2.65-0.16 C166.026 153.1 165.6 153.9 165.5 155.724z M172.472 169.689l0.007-0.978c0.012-1.802-0.449-2.627-1.993-2.637 c-1.049-0.007-1.691 0.131-2.652 0.124c-0.523-0.003-1.074-0.404-1.078-2.006l-1.021-0.007c-0.024 1.602-0.58 1.996-1.105 2 c-0.918-0.007-1.645-0.153-2.649-0.16c-1.544-0.01-2.016 0.809-2.027 2.61l-0.006 0.978l0.917 0.006l0.004-0.652 c0.009-1.305 0.303-1.6 1.177-1.594c0.801 0 1.6 0.1 2.5 0.088c1.02 0 1.474-0.332 1.655-1.337l0.058 0 c0.168 1 0.6 1.4 1.6 1.357c0.932 0 1.66-0.059 2.506-0.055c0.873 0 1.2 0.3 1.2 1.61l-0.005 0.7 L172.472 169.689z M154.883 167.034c0.888-0.232 1.629-0.279 2.602-0.532c1.493-0.39 1.736-1.303 1.282-3.045l-0.247-0.947 l-0.888 0.232l0.165 0.63c0.329 1.3 0.1 1.624-0.724 1.846c-0.775 0.201-1.582 0.338-2.441 0.6 c-0.987 0.257-1.338 0.701-1.253 1.719l-0.056 0.015c-0.425-0.93-0.947-1.146-1.934-0.888c-0.901 0.234-1.589 0.487-2.405 0.7 c-0.846 0.22-1.204 0.006-1.532-1.255l-0.165-0.632l-0.888 0.232l0.246 0.947c0.455 1.7 1.1 2.4 2.6 2 c1.016-0.264 1.6-0.564 2.529-0.807c0.508-0.132 1.1 0.1 1.6 1.659l0.987-0.258 C153.939 167.7 154.4 167.2 154.9 167.034z M116.016 169.502c0.418-1.547 1.054-1.792 1.562-1.659 c0.93 0.2 1.5 0.5 2.5 0.807c1.494 0.4 2.152-0.288 2.606-2.03l0.247-0.947l-0.888-0.232l-0.165 0.6 c-0.33 1.261-0.687 1.476-1.532 1.255c-0.818-0.213-1.504-0.466-2.406-0.701c-0.986-0.258-1.51-0.042-1.933 0.888l-0.057-0.015 c0.085-1.018-0.266-1.461-1.252-1.719c-0.86-0.225-1.667-0.362-2.442-0.563c-0.846-0.222-1.053-0.583-0.723-1.846l0.165-0.63 l-0.888-0.232l-0.248 0.947c-0.454 1.742-0.21 2.7 1.3 3.045c0.972 0.3 1.7 0.3 2.6 0.5 c0.508 0.1 0.9 0.7 0.6 2.209L116.016 169.502z M115.54 176.429l-0.067 0.649l0.913 0.095l0.1-0.973 c0.185-1.792-0.195-2.657-1.73-2.815c-1-0.103-1.739-0.037-2.652-0.131c-0.522-0.053-1.031-0.505-0.882-2.101l-1.014-0.104 c-0.178 1.591-0.77 1.929-1.291 1.876c-0.957-0.099-1.579-0.305-2.623-0.413c-1.536-0.158-2.084 0.612-2.268 2.403l-0.1 1 l0.912 0.094l0.067-0.648c0.134-1.298 0.454-1.564 1.324-1.475c0.84 0.1 1.6 0.2 2.5 0.3 c1.014 0.1 1.498-0.188 1.775-1.171l0.058 0.007c0.071 1 0.5 1.4 1.5 1.508c0.884 0.1 1.7 0.1 2.5 0.2 C115.414 174.8 115.7 175.1 115.5 176.429z M120.49 173.201c0.844-0.046 1.575-0.013 2.506-0.063 c1.018-0.055 1.45-0.418 1.571-1.433l0.058-0.003c0.229 1 0.7 1.3 1.7 1.258c0.888-0.048 1.698-0.163 2.499-0.205 c0.873-0.047 1.2 0.2 1.2 1.538l0.034 0.651l0.917-0.05l-0.052-0.976c-0.096-1.798-0.605-2.595-2.146-2.512 c-1.004 0.053-1.724 0.234-2.64 0.283c-0.524 0.029-1.098-0.338-1.198-1.938l-1.018 0.054c0.071 1.602-0.46 2.027-0.984 2.1 c-0.959 0.051-1.607-0.057-2.655 0c-1.542 0.082-1.963 0.927-1.867 2.726l0.052 0.977l0.917-0.049l-0.035-0.651 C119.343 173.6 119.6 173.2 120.5 173.201z M147.332 175.944l0.916 0.05l0.053-0.977c0.096-1.799-0.326-2.644-1.868-2.727 c-1.048-0.056-1.695 0.051-2.654 0c-0.524-0.028-1.056-0.454-0.984-2.054l-1.019-0.055c-0.1 1.599-0.673 1.966-1.196 1.9 c-0.917-0.049-1.637-0.229-2.641-0.283c-1.541-0.082-2.051 0.714-2.147 2.513l-0.052 0.977l0.917 0.048l0.034-0.65 c0.069-1.302 0.376-1.584 1.249-1.538c0.8 0 1.6 0.2 2.5 0.205c1.019 0.1 1.487-0.261 1.715-1.257l0.059 0 c0.122 1 0.6 1.4 1.6 1.432c0.93 0.1 1.7 0 2.5 0.063c0.874 0 1.1 0.4 1.1 1.661L147.332 175.944z M139.781 181.312l0.009-0.978c0.015-1.801-0.445-2.627-1.989-2.64c-1.048-0.009-1.689 0.128-2.651 0.1 c-0.524-0.004-1.074-0.406-1.076-2.008l-1.019-0.009c-0.028 1.603-0.584 1.994-1.109 1.991c-0.918-0.008-1.645-0.155-2.65-0.164 c-1.543-0.012-2.016 0.806-2.031 2.606l-0.007 0.979l0.917 0.006l0.005-0.651c0.011-1.305 0.305-1.601 1.179-1.594 c0.802 0 1.6 0.1 2.5 0.092c1.02 0 1.474-0.328 1.657-1.333l0.058 0.001c0.167 1 0.6 1.4 1.6 1.4 c0.932 0 1.661-0.058 2.506-0.051c0.874 0 1.2 0.3 1.2 1.612l-0.007 0.652L139.781 181.312z M122.539 181.3 l0.069 0.514l0.738-0.1l-0.104-0.772c-0.19-1.421-0.652-2.021-1.895-1.853c-0.844 0.113-1.344 0.294-2.118 0.4 c-0.421 0.057-0.909-0.197-1.09-1.461l-0.82 0.11c0.157 1.267-0.246 1.64-0.668 1.697c-0.738 0.098-1.339 0.065-2.147 0.2 c-1.242 0.167-1.531 0.867-1.34 2.288l0.104 0.772l0.738-0.099l-0.068-0.515c-0.138-1.03 0.064-1.296 0.768-1.39 c0.645-0.086 1.308-0.12 2.022-0.216c0.821-0.109 1.147-0.427 1.182-1.241l0.047-0.006c0.247 0.8 0.6 1 1.5 0.9 c0.75-0.101 1.328-0.235 2.008-0.328C122.135 180.1 122.4 180.3 122.5 181.287z M152.273 179.6 c-0.808-0.107-1.409-0.075-2.146-0.174c-0.422-0.057-0.825-0.431-0.667-1.696l-0.821-0.111c-0.182 1.264-0.668 1.518-1.09 1.5 c-0.774-0.103-1.274-0.285-2.118-0.398c-1.242-0.166-1.704 0.433-1.895 1.854l-0.104 0.772l0.739 0.1l0.068-0.514 c0.139-1.031 0.404-1.234 1.106-1.14c0.68 0.1 1.3 0.2 2 0.327c0.82 0.1 1.22-0.11 1.467-0.886l0.048 0 c0.033 0.8 0.4 1.1 1.2 1.241c0.715 0.1 1.4 0.1 2 0.215c0.703 0.1 0.9 0.4 0.8 1.391l-0.069 0.5 l0.737 0.099l0.104-0.772C153.804 180.4 153.5 179.7 152.3 179.564z M145.394 184.3 c-0.81-0.109-1.41-0.076-2.148-0.175c-0.422-0.056-0.825-0.43-0.667-1.696l-0.82-0.11c-0.181 1.263-0.669 1.517-1.091 1.5 c-0.772-0.104-1.273-0.285-2.118-0.398c-1.24-0.167-1.704 0.432-1.894 1.854l-0.103 0.772l0.737 0.099l0.07-0.515 c0.138-1.029 0.403-1.233 1.106-1.138c0.681 0.1 1.3 0.2 2 0.326c0.819 0.1 1.219-0.109 1.466-0.885l0.047 0 c0.035 0.8 0.4 1.1 1.2 1.241c0.715 0.1 1.4 0.1 2 0.215c0.702 0.1 0.9 0.4 0.8 1.391l-0.068 0.5 l0.737 0.099l0.104-0.772C146.923 185.2 146.6 184.5 145.4 184.297z M137.017 187.3 c-0.71 0.009-1.224 0.114-1.873 0.124c-0.371 0.003-0.766-0.267-0.791-1.377l-0.721 0.009c0.004 1.111-0.383 1.392-0.754 1.4 c-0.68 0.01-1.135-0.083-1.876-0.074c-1.091 0.015-1.413 0.59-1.396 1.839l0.009 0.679l0.649-0.008l-0.006-0.453 c-0.012-0.905 0.192-1.114 0.81-1.122c0.597-0.008 1.1 0 1.8 0.025c0.72-0.009 1.036-0.249 1.151-0.949l0.041 0 c0.133 0.7 0.5 0.9 1.2 0.919c0.628-0.008 1.204-0.064 1.771-0.071c0.617-0.009 0.8 0.2 0.8 1.101l0.006 0.5 l0.648-0.008l-0.009-0.679C138.445 187.9 138.1 187.3 137 187.32z M130.28 185.587l0.069 0.515l0.738-0.099 l-0.104-0.772c-0.19-1.421-0.652-2.021-1.894-1.854c-0.845 0.113-1.345 0.294-2.118 0.398c-0.421 0.057-0.909-0.197-1.09-1.46 l-0.821 0.11c0.158 1.266-0.245 1.64-0.667 1.696c-0.738 0.099-1.339 0.066-2.147 0.175c-1.242 0.167-1.53 0.865-1.339 2.3 l0.104 0.772l0.738-0.099l-0.068-0.515c-0.139-1.03 0.064-1.296 0.768-1.391c0.645-0.086 1.309-0.118 2.023-0.215 c0.82-0.11 1.147-0.427 1.181-1.241l0.047-0.006c0.247 0.8 0.6 1 1.5 0.885c0.75-0.1 1.328-0.235 2.008-0.326 C129.876 184.4 130.1 184.6 130.3 185.587z M166.202 176.434l-0.739 0.096l0.067 0.5 c0.134 1.031-0.07 1.297-0.774 1.387c-0.68 0.088-1.273 0.107-2.023 0.205c-0.821 0.105-1.15 0.421-1.188 1.234l-0.047 0 c-0.244-0.778-0.643-1-1.463-0.894c-0.715 0.093-1.364 0.233-2.01 0.317c-0.703 0.09-0.969-0.115-1.103-1.145l-0.066-0.516 l-0.738 0.096l0.1 0.772c0.185 1.4 0.6 2 1.9 1.863c0.809-0.104 1.381-0.292 2.119-0.388 c0.423-0.053 0.9 0.2 1.1 1.467l0.821-0.106c-0.152-1.268 0.252-1.639 0.675-1.693c0.773-0.101 1.304-0.054 2.148-0.164 c1.243-0.16 1.534-0.857 1.35-2.281L166.202 176.434z M108.135 178.155c-0.133 1.03-0.399 1.235-1.102 1.1 c-0.645-0.083-1.294-0.224-2.01-0.317c-0.821-0.105-1.219 0.116-1.462 0.894l-0.047-0.007c-0.038-0.813-0.367-1.129-1.187-1.234 c-0.751-0.098-1.345-0.117-2.024-0.205c-0.704-0.09-0.908-0.356-0.774-1.387l0.067-0.514l-0.739-0.096l-0.1 0.8 c-0.184 1.4 0.1 2.1 1.4 2.281c0.844 0.1 1.4 0.1 2.1 0.164c0.422 0.1 0.8 0.4 0.7 1.693l0.821 0.1 c0.175-1.265 0.661-1.521 1.083-1.467c0.738 0.1 1.3 0.3 2.1 0.388c1.242 0.2 1.702-0.441 1.885-1.863l0.1-0.772 l-0.739-0.096L108.135 178.155z M156.335 173.005c0.217 1 0.7 1.3 1.7 1.278c0.932-0.039 1.656-0.14 2.501-0.176 c0.873-0.037 1.2 0.2 1.2 1.552l0.026 0.651l0.918-0.038l-0.042-0.978c-0.075-1.799-0.574-2.601-2.117-2.537 c-1.048 0.044-1.683 0.212-2.644 0.252c-0.523 0.021-1.093-0.351-1.174-1.952l-1.019 0.042c0.052 1.601-0.484 2.021-1.008 2 c-0.918 0.038-1.651-0.073-2.654-0.031c-1.543 0.065-1.975 0.905-1.899 2.705l0.041 0.978l0.917-0.039l-0.027-0.651 c-0.054-1.303 0.225-1.613 1.098-1.649c0.8-0.033 1.6 0 2.506-0.034c1.018-0.042 1.455-0.401 1.588-1.415L156.335 173.005z M175.993 167.013l-0.786 0.474l0.336 0.56c0.674 1.1 0.6 1.522-0.171 1.974c-0.687 0.413-1.422 0.772-2.183 1.2 c-0.874 0.526-1.086 1.051-0.716 2.003l-0.05 0.03c-0.669-0.772-1.231-0.831-2.104-0.306c-0.799 0.481-1.386 0.917-2.11 1.4 c-0.749 0.451-1.151 0.346-1.824-0.771l-0.336-0.558l-0.786 0.473l0.504 0.839c0.929 1.5 1.8 2 3.1 1.2 c0.898-0.541 1.374-0.993 2.198-1.489c0.449-0.271 1.127-0.216 2 1.149l0.874-0.526c-0.814-1.379-0.545-2.005-0.095-2.276 c0.786-0.474 1.483-0.728 2.344-1.246c1.322-0.797 1.298-1.742 0.369-3.285L175.993 167.013z M102.302 173.453l0.504-0.838 l-0.786-0.474l-0.337 0.559c-0.672 1.117-1.076 1.223-1.824 0.772c-0.724-0.437-1.311-0.873-2.109-1.354 c-0.874-0.525-1.436-0.467-2.105 0.305l-0.05-0.03c0.369-0.953 0.158-1.477-0.715-2.003c-0.761-0.458-1.497-0.819-2.183-1.231 c-0.749-0.451-0.845-0.857-0.172-1.974l0.336-0.559l-0.786-0.474l-0.505 0.838c-0.929 1.543-0.954 2.5 0.4 3.3 c0.861 0.5 1.6 0.8 2.3 1.247c0.449 0.3 0.7 0.896-0.095 2.276l0.874 0.526c0.839-1.365 1.518-1.42 1.967-1.149 c0.823 0.5 1.3 0.9 2.2 1.49C100.55 175.5 101.4 175 102.3 173.453z M125.864 161.059l-0.979-0.284 c-0.46 1.536-1.102 1.763-1.605 1.617c-0.923-0.267-1.5-0.582-2.507-0.874c-1.483-0.429-2.16 0.231-2.661 1.96l-0.271 0.9 l0.881 0.255l0.182-0.626c0.362-1.252 0.725-1.458 1.564-1.215c0.812 0.2 1.5 0.5 2.4 0.8 c0.979 0.3 1.5 0.1 1.955-0.837l0.056 0.016c-0.112 1 0.2 1.5 1.2 1.751c0.854 0.2 1.7 0.4 2.4 0.6 c0.839 0.2 1 0.6 0.7 1.863l-0.182 0.626l0.881 0.255l0.272-0.94c0.5-1.729 0.281-2.649-1.201-3.078 c-0.966-0.279-1.704-0.346-2.586-0.601C125.855 163.1 125.4 162.6 125.9 161.059z M142.571 163.7 c-0.882 0.255-1.621 0.32-2.586 0.601c-1.482 0.429-1.702 1.349-1.201 3.078l0.271 0.941l0.882-0.256l-0.181-0.626 c-0.362-1.253-0.166-1.62 0.674-1.862c0.769-0.224 1.572-0.383 2.426-0.629c0.979-0.284 1.319-0.736 1.207-1.752l0.056-0.016 c0.448 0.9 1 1.1 2 0.836c0.896-0.259 1.575-0.53 2.386-0.765c0.84-0.243 1.202-0.038 1.6 1.215l0.183 0.6 l0.881-0.254l-0.271-0.941c-0.501-1.729-1.178-2.389-2.66-1.96c-1.007 0.292-1.583 0.606-2.507 0.9 c-0.504 0.146-1.146-0.082-1.605-1.617l-0.979 0.284C143.496 163 143.1 163.6 142.6 163.713z M139.606 158.3 c-0.011 1.305-0.306 1.6-1.18 1.592c-0.801-0.007-1.616-0.085-2.505-0.093c-1.019-0.009-1.473 0.327-1.657 1.332l-0.058 0 c-0.166-1.008-0.615-1.353-1.634-1.361c-0.932-0.008-1.661 0.057-2.506 0.049c-0.874-0.008-1.162-0.309-1.151-1.612l0.006-0.653 l-0.918-0.008l-0.008 0.979c-0.016 1.8 0.4 2.6 2 2.641c1.048 0 1.69-0.127 2.651-0.119 c0.525 0 1.1 0.4 1.1 2.009l1.02 0.009c0.028-1.603 0.585-1.995 1.11-1.99c0.917 0 1.6 0.2 2.6 0.2 c1.543 0 2.017-0.805 2.033-2.605l0.007-0.978l-0.917-0.008L139.606 158.308z M153.931 150.993l-0.006 0.978l0.918 0 l0.004-0.653c0.008-1.304 0.302-1.6 1.175-1.594c0.802 0 1.6 0.1 2.5 0.088c1.021 0 1.474-0.331 1.655-1.336h0.059 c0.168 1 0.6 1.4 1.6 1.357c0.932 0 1.661-0.059 2.506-0.054c0.874 0 1.2 0.3 1.2 1.61l-0.004 0.7 l0.917 0.006l0.007-0.978c0.012-1.801-0.448-2.626-1.993-2.637c-1.049-0.007-1.69 0.131-2.651 0.1 c-0.524-0.003-1.075-0.404-1.079-2.007l-1.02-0.006c-0.025 1.602-0.581 1.996-1.106 1.992c-0.917-0.006-1.644-0.153-2.648-0.159 C154.415 148.4 153.9 149.2 153.9 150.993z M159.38 157.946c0.168 1 0.6 1.4 1.6 1.4 c0.931 0 1.66-0.06 2.505-0.055c0.873 0 1.2 0.3 1.2 1.61l-0.004 0.652l0.918 0.006l0.006-0.978 c0.013-1.8-0.448-2.625-1.992-2.637c-1.05-0.006-1.69 0.131-2.651 0.125c-0.525-0.004-1.076-0.404-1.079-2.006l-1.021-0.007 c-0.025 1.603-0.581 1.996-1.105 1.992c-0.917-0.005-1.645-0.153-2.649-0.159c-1.544-0.01-2.016 0.809-2.027 2.609l-0.007 1 l0.918 0.006l0.004-0.652c0.009-1.305 0.302-1.601 1.176-1.595c0.801 0 1.6 0.1 2.5 0.1 c1.02 0 1.473-0.331 1.654-1.336L159.38 157.946z M101.949 150.895c0.009-1.304 0.302-1.6 1.176-1.594 c0.801 0 1.6 0.1 2.5 0.088c1.019 0 1.473-0.331 1.655-1.336l0.058 0c0.168 1 0.6 1.4 1.6 1.4 c0.932 0 1.661-0.06 2.505-0.054c0.875 0 1.2 0.3 1.2 1.61l-0.004 0.652l0.917 0.006l0.006-0.978 c0.012-1.801-0.449-2.626-1.993-2.637c-1.049-0.006-1.69 0.131-2.651 0.125c-0.525-0.003-1.076-0.404-1.079-2.006l-1.02-0.007 c-0.025 1.602-0.581 1.995-1.105 1.992c-0.918-0.006-1.645-0.153-2.65-0.16c-1.543-0.01-2.016 0.81-2.027 2.61l-0.006 1 l0.917 0.005L101.949 150.895z M108.574 157.515l0.058 0.001c0.168 1 0.6 1.4 1.6 1.4 c0.932 0 1.661-0.06 2.506-0.055c0.874 0 1.2 0.3 1.2 1.61l-0.004 0.652l0.918 0.006l0.006-0.978 c0.012-1.801-0.449-2.626-1.993-2.636c-1.049-0.007-1.69 0.131-2.652 0.124c-0.524-0.003-1.075-0.404-1.079-2.006l-1.02-0.006 c-0.025 1.602-0.582 1.996-1.105 1.992c-0.918-0.006-1.646-0.153-2.65-0.159c-1.544-0.01-2.015 0.809-2.027 2.609l-0.006 1 l0.917 0.006l0.004-0.652c0.009-1.304 0.302-1.6 1.176-1.594c0.801 0 1.6 0.1 2.5 0.1 C107.939 158.9 108.4 158.5 108.6 157.515z M107.962 168.829l0.006-0.979c0.012-1.8-0.449-2.626-1.993-2.637 c-1.049-0.006-1.69 0.131-2.652 0.125c-0.524-0.003-1.075-0.404-1.079-2.005l-1.02-0.007c-0.025 1.603-0.582 1.996-1.105 2 c-0.917-0.006-1.645-0.152-2.65-0.159c-1.544-0.011-2.016 0.809-2.027 2.609l-0.006 0.978l0.917 0.007l0.004-0.653 c0.008-1.304 0.302-1.6 1.176-1.595c0.801 0 1.6 0.1 2.5 0.087c1.02 0 1.474-0.33 1.655-1.336l0.058 0 c0.168 1 0.6 1.4 1.6 1.358c0.932 0 1.661-0.06 2.506-0.054c0.874 0 1.2 0.3 1.2 1.61l-0.005 0.7 L107.962 168.829z M122.26 152.672c-0.459-0.003-0.942-0.355-0.946-1.763l-0.894-0.006c-0.022 1.408-0.51 1.754-0.97 1.8 c-0.805-0.005-1.442-0.134-2.323-0.14c-1.354-0.009-1.769 0.711-1.778 2.293l-0.006 0.86l0.805 0.005l0.004-0.573 c0.008-1.147 0.265-1.407 1.031-1.401c0.702 0 1.4 0.1 2.2 0.077c0.894 0 1.292-0.29 1.452-1.174l0.05 0 c0.147 0.9 0.5 1.2 1.4 1.193c0.817 0 1.456-0.053 2.197-0.048c0.767 0 1 0.3 1 1.415l-0.003 0.6 l0.805 0.006l0.005-0.86c0.01-1.583-0.394-2.308-1.748-2.317C123.666 152.6 123.1 152.7 122.3 152.672z M139.528 155.7 l0.006-0.86c0.01-1.583-0.394-2.308-1.748-2.317c-0.919-0.006-1.482 0.115-2.325 0.109c-0.46-0.003-0.942-0.355-0.947-1.763 l-0.894-0.006c-0.022 1.408-0.51 1.754-0.969 1.75c-0.805-0.005-1.443-0.134-2.325-0.14c-1.354-0.009-1.767 0.711-1.777 2.3 l-0.006 0.86l0.805 0.005l0.004-0.573c0.007-1.147 0.264-1.407 1.031-1.401c0.703 0 1.4 0.1 2.2 0.1 c0.894 0 1.292-0.29 1.451-1.174l0.051 0c0.148 0.9 0.5 1.2 1.4 1.193c0.818 0 1.457-0.053 2.198-0.048 c0.767 0 1 0.3 1 1.415l-0.004 0.573L139.528 155.74z M142.553 155.099c0.007-1.147 0.265-1.407 1.03-1.401 c0.703 0 1.4 0.1 2.2 0.077c0.895 0 1.293-0.29 1.451-1.174l0.051 0c0.147 0.9 0.5 1.2 1.4 1.2 c0.816 0 1.456-0.053 2.196-0.048c0.767 0 1 0.3 1 1.415l-0.004 0.573l0.805 0.006l0.006-0.86 c0.011-1.583-0.394-2.308-1.748-2.317c-0.919-0.006-1.482 0.115-2.325 0.109c-0.46-0.003-0.942-0.355-0.945-1.763l-0.896-0.006 c-0.021 1.408-0.509 1.754-0.969 1.75c-0.805-0.005-1.442-0.134-2.323-0.14c-1.354-0.009-1.768 0.711-1.779 2.293l-0.006 0.9 l0.806 0.005L142.553 155.099z M128.612 146.164c0.009-1.305 0.302-1.601 1.176-1.595c0.801 0 1.6 0.1 2.5 0.1 c1.02 0 1.473-0.331 1.655-1.336l0.058 0c0.168 1 0.6 1.4 1.6 1.357c0.932 0 1.661-0.059 2.505-0.054 c0.874 0 1.2 0.3 1.2 1.61l-0.005 0.652l0.918 0.007l0.006-0.979c0.012-1.8-0.447-2.626-1.992-2.636 c-1.048-0.007-1.691 0.13-2.652 0.124c-0.524-0.003-1.075-0.404-1.079-2.006l-1.02-0.007c-0.025 1.602-0.581 1.996-1.105 2 c-0.918-0.006-1.645-0.153-2.65-0.16c-1.543-0.01-2.015 0.81-2.027 2.61l-0.006 0.979l0.917 0.006L128.612 146.164z M113.99 146.164c0.009-1.305 0.302-1.601 1.177-1.595c0.8 0 1.6 0.1 2.5 0.087c1.019 0 1.474-0.331 1.655-1.336 l0.058 0c0.168 1 0.6 1.4 1.6 1.357c0.932 0 1.661-0.059 2.505-0.054c0.874 0 1.2 0.3 1.2 1.6 l-0.004 0.652l0.917 0.007l0.006-0.979c0.012-1.8-0.448-2.626-1.992-2.636c-1.049-0.007-1.691 0.13-2.652 0.1 c-0.524-0.003-1.075-0.404-1.08-2.006l-1.019-0.007c-0.025 1.602-0.582 1.996-1.106 1.992c-0.917-0.006-1.645-0.153-2.649-0.16 c-1.544-0.01-2.016 0.81-2.027 2.61l-0.007 0.979l0.918 0.006L113.99 146.164z M144.095 146.2 c0.009-1.305 0.302-1.601 1.176-1.595c0.801 0 1.6 0.1 2.5 0.087c1.02 0 1.474-0.331 1.655-1.336l0.058 0 c0.169 1 0.6 1.4 1.6 1.357c0.932 0 1.66-0.059 2.504-0.054c0.875 0 1.2 0.3 1.2 1.61l-0.005 0.7 l0.918 0.007l0.006-0.979c0.013-1.8-0.448-2.626-1.993-2.636c-1.048-0.007-1.69 0.13-2.651 0.1 c-0.524-0.003-1.075-0.404-1.078-2.006l-1.021-0.007c-0.024 1.602-0.581 1.996-1.105 1.992c-0.918-0.006-1.646-0.153-2.648-0.16 c-1.545-0.01-2.018 0.81-2.029 2.61l-0.006 0.979l0.918 0.006L144.095 146.164z"/>
		</g>
	</g>
</g>
</svg>
